<?xml version="1.0" encoding="UTF-8"?>
<svg version="1.1" xmlns="http://www.w3.org/2000/svg" width="307" height="307">
<path d="M0 0 C101.31 0 202.62 0 307 0 C307 101.31 307 202.62 307 307 C205.69 307 104.38 307 0 307 C0 205.69 0 104.38 0 0 Z " fill="#6B5CF5" transform="translate(0,0)"/>
<path d="M0 0 C1.91128944 -0.01062721 1.91128944 -0.01062721 3.8611908 -0.02146912 C5.26078832 -0.0191756 6.66038551 -0.01666595 8.0599823 -0.01396179 C9.54378516 -0.01831223 11.02758576 -0.02349648 12.51138306 -0.02944946 C16.53219039 -0.04281692 20.55290358 -0.04342051 24.5737288 -0.04088616 C27.93583831 -0.03981465 31.29792891 -0.04470458 34.66003436 -0.04949158 C42.59609916 -0.06057957 50.53211663 -0.06102855 58.46818542 -0.05497742 C66.64111847 -0.04894121 74.8138792 -0.06124126 82.98678285 -0.08254749 C90.01544755 -0.10019354 97.04405757 -0.10616001 104.07274359 -0.10290974 C108.2653994 -0.10110109 112.45793236 -0.10369089 116.65056801 -0.11762428 C120.59623541 -0.13024655 124.54163543 -0.12821723 128.48729897 -0.11521339 C129.92998853 -0.11285738 131.37269716 -0.11554712 132.81536484 -0.12383652 C144.82264152 -0.18781782 153.46748981 1.15249945 162.56852722 9.26069641 C169.39194392 16.26852977 170.0150818 24.19176981 169.9884491 33.47505188 C169.99691864 34.57206421 170.00538818 35.66907654 170.01411438 36.79933167 C170.03742434 40.40896853 170.03850792 44.01817762 170.03727722 47.62788391 C170.04438238 50.14840361 170.0520819 52.66892171 170.06034851 55.18943787 C170.07377955 60.46664267 170.0755504 65.74373819 170.06950378 71.02095032 C170.0628669 77.09916017 170.085724 83.17676259 170.12281752 89.25484931 C170.1573453 95.12817681 170.16384098 101.00126726 170.159729 106.87468338 C170.16141753 109.36166823 170.1710341 111.84866129 170.18887329 114.33558273 C170.21111859 117.82005641 170.20133095 121.30308126 170.1837616 124.78755188 C170.19702484 125.80501495 170.21028809 126.82247803 170.22395325 127.87077332 C170.12003076 136.78439071 166.95487825 144.87434539 160.56852722 151.26069641 C155.09674835 155.2370823 150.72373316 157.39299093 143.89176941 157.3742218 C142.97111694 157.37414627 142.05046448 157.37407074 141.10191345 157.37399292 C140.11636475 157.36883163 139.13081604 157.36367035 138.11540222 157.35835266 C137.10004395 157.35693771 136.08468567 157.35552277 135.03855896 157.35406494 C131.7985183 157.34847157 128.55854697 157.33592026 125.31852722 157.32319641 C123.12061155 157.31818056 120.9226948 157.3136178 118.72477722 157.30952454 C113.33933694 157.29850431 107.95393703 157.28177275 102.56852722 157.26069641 C103.25983935 160.64549347 103.99426801 164.01954272 104.73649597 167.39350891 C104.93045959 168.3458844 105.12442322 169.29825989 105.32426453 170.27949524 C107.01224649 177.7979463 109.31284669 181.47909485 115.55680847 186.12788391 C117.56852722 188.26069641 117.56852722 188.26069641 118.04899597 191.83100891 C117.56852722 195.26069641 117.56852722 195.26069641 116.56169128 196.94979858 C113.35867463 199.05641271 109.90762895 198.68543616 106.19743347 198.66474915 C105.34350006 198.6716124 104.48956665 198.67847565 103.60975647 198.68554688 C100.7833449 198.70386829 97.95748551 198.69997017 95.13102722 198.69429016 C93.16951821 198.69884909 91.2080108 198.70415379 89.24650574 198.71017456 C85.13405369 198.71911593 81.02179573 198.7166705 76.90934753 198.70674133 C71.63291641 198.69524473 66.35715381 198.71546858 61.08081055 198.74465847 C57.02995024 198.76298167 52.97925132 198.76273587 48.92835999 198.75702095 C46.98265138 198.75686729 45.03693214 198.76294841 43.09126282 198.77531242 C40.37361881 198.79014922 37.65722517 198.77960015 34.93962097 198.7624054 C33.72857193 198.77690735 33.72857193 198.77690735 32.49305725 198.79170227 C27.06430699 198.71958039 27.06430699 198.71958039 24.57536316 196.41586304 C23.17670008 193.42197706 23.04819741 191.52650626 23.56852722 188.26069641 C25.58024597 186.12007141 25.58024597 186.12007141 28.25602722 184.01069641 C35.35559738 177.44409682 36.58249368 169.43340016 38.56852722 160.26069641 C38.89852722 159.27069641 39.22852722 158.28069641 39.56852722 157.26069641 C38.7307373 157.27068916 38.7307373 157.27068916 37.87602234 157.28088379 C32.0356271 157.34752161 26.1953408 157.39261449 20.35466003 157.42549133 C18.17818308 157.4405294 16.00173618 157.46096514 13.82536316 157.48701477 C10.68759214 157.52361731 7.55022362 157.54047302 4.41227722 157.55366516 C3.44737366 157.56914902 2.48247009 157.58463287 1.48832703 157.60058594 C-7.5107634 157.60280154 -13.94412788 155.43515799 -20.60334778 149.22163391 C-28.19498814 141.07846412 -28.57969716 133.25902531 -28.60847473 122.53291321 C-28.61504593 121.46384735 -28.62161713 120.39478149 -28.62838745 119.2933197 C-28.64805248 115.7655174 -28.65976652 112.23775749 -28.66975403 108.70991516 C-28.67382956 107.50203653 -28.67790508 106.29415791 -28.68210411 105.0496769 C-28.70293356 98.65916237 -28.7172501 92.26866914 -28.72663879 85.87812805 C-28.73771046 79.28753813 -28.7721286 72.69728513 -28.81181049 66.10681438 C-28.83797997 61.02892437 -28.84633085 55.95111474 -28.84992027 50.87316322 C-28.85478349 48.44395987 -28.86638984 46.01476004 -28.88495827 43.58562279 C-28.90936095 40.18236538 -28.90838239 36.77998171 -28.90144348 33.37666321 C-28.91425354 32.38051498 -28.9270636 31.38436676 -28.94026184 30.35803223 C-28.86904024 20.74048252 -25.67476399 13.90509806 -19.15803528 6.91694641 C-13.73483193 1.7145975 -7.38124182 0.01372928 0 0 Z " fill="#F9F8FE" transform="translate(82.43147277832031,12.739303588867188)"/>
<path d="M0 0 C1.91345718 -0.02125443 1.91345718 -0.02125443 3.86557007 -0.04293823 C5.26675558 -0.03835123 6.66793973 -0.03333191 8.06912231 -0.02792358 C9.55455549 -0.03662441 11.03997968 -0.04699292 12.52539062 -0.05889893 C16.55033905 -0.08563302 20.57491136 -0.08684151 24.59993124 -0.08177233 C27.96464328 -0.07962953 31.32927975 -0.08940831 34.69397557 -0.09898317 C42.63483744 -0.12115806 50.5755101 -0.12205738 58.51638794 -0.10995483 C66.69749468 -0.09787748 74.87791328 -0.12249398 83.05890262 -0.16509497 C90.09268055 -0.20036984 97.12623988 -0.21232297 104.16010296 -0.20581949 C108.35678202 -0.20219984 112.55297029 -0.20740393 116.74956894 -0.23524857 C120.69796683 -0.260467 124.64529537 -0.25646227 128.59367752 -0.23042679 C130.03840248 -0.22570901 131.48320341 -0.23111583 132.92784119 -0.24767303 C140.57578292 -0.32897141 146.2241096 -0.25620341 152.13560677 4.94210243 C171.26984403 26.13036546 155.5617981 61.97211042 155.5617981 90.52139282 C98.8017981 90.52139282 42.0417981 90.52139282 -16.4382019 90.52139282 C-16.4382019 10.52139282 -16.4382019 10.52139282 -12.4382019 4.52139282 C-8.24234184 1.06992695 -5.3993354 0.02006216 0 0 Z " fill="#6C5DF5" transform="translate(83.43820190429688,25.478607177734375)"/>
<path d="M0 0 C8.6226905 6.80234472 17.22884817 15.78095959 19.4609375 26.94140625 C18.74898952 36.8730806 11.75103091 47.21078512 4.4609375 53.94140625 C-8.47733322 64.51292013 -23.9133971 68.56492611 -40.5390625 66.94140625 C-54.71654311 63.72886994 -66.52413105 54.45476932 -74.29638672 42.41992188 C-74.91151123 41.44055664 -74.91151123 41.44055664 -75.5390625 40.44140625 C-75.93754395 39.82458984 -76.33602539 39.20777344 -76.74658203 38.57226562 C-79.5910252 33.81099707 -80.0800558 30.47531687 -79.5390625 24.94140625 C-75.96724464 13.43603143 -66.45589117 3.36659539 -56.5390625 -3.05859375 C-37.56049672 -12.80836676 -17.73545344 -12.32960201 0 0 Z " fill="#FBFBFE" transform="translate(267.5390625,220.05859375)"/>
<path d="M0 0 C10.89429633 5.75145812 17.99539886 12.86817174 22.88671875 24.24609375 C26.1948588 35.40090983 25.01513127 46.48912756 19.90234375 56.87109375 C15.139805 64.70434536 9.22579388 70.89490742 1 75 C0.31035156 75.39058594 -0.37929687 75.78117187 -1.08984375 76.18359375 C-9.69128082 80.4328507 -21.38317859 80.62071279 -30.546875 77.9765625 C-31.76117188 77.49316406 -31.76117188 77.49316406 -33 77 C-33 76.34 -33 75.68 -33 75 C-33.66 74.95875 -34.32 74.9175 -35 74.875 C-43.14014958 72.5007897 -48.40611805 65.76817073 -53 59 C-53.76570313 57.99646484 -53.76570313 57.99646484 -54.546875 56.97265625 C-60.04370903 48.43403485 -59.39487105 36.7171198 -58 27 C-55.09207999 15.75506355 -47.43221019 7.59093303 -37.8125 1.625 C-26.80115053 -4.74343798 -11.69320995 -5.60796804 0 0 Z " fill="#FCFCFE" transform="translate(78,208)"/>
<path d="M0 0 C56.76 0 113.52 0 172 0 C172 19 172 19 168 25 C164.21272374 27.98261766 161.35402421 28.37860345 156.59266663 28.39440918 C155.29868454 28.40575897 154.00470245 28.41710876 152.67150879 28.42880249 C151.24462828 28.42615937 149.81774836 28.42318818 148.39086914 28.41992188 C146.88263826 28.42726422 145.374413 28.43585093 143.86619568 28.44558716 C139.77526045 28.46779371 135.6845267 28.47073432 131.59353948 28.46883965 C128.17650963 28.46871991 124.75952242 28.47728509 121.34250444 28.48561716 C113.28047204 28.50484784 105.21854319 28.50773615 97.15649414 28.50097656 C88.84310647 28.49433447 80.53016235 28.51720746 72.21686465 28.55429029 C65.07530189 28.58498896 57.93388181 28.5963472 50.79225439 28.59245348 C46.52860905 28.59038628 42.26530894 28.59586055 38.00172615 28.62034607 C33.99191197 28.64261393 29.98281899 28.64073573 25.97300148 28.62041855 C24.50324696 28.61700859 23.03344389 28.62209717 21.56375504 28.63640213 C9.08268351 28.74948238 9.08268351 28.74948238 5.26634216 25.77404785 C-2.3314783 16.47416459 0 15.00750252 0 0 Z " fill="#6C5DF5" transform="translate(67,129)"/>
<path d="M0 0 C5.52659523 3.20351585 10.61720507 7.98833395 12.66015625 14.1171875 C13.31821884 22.77324162 12.6600156 28.51026064 7.91015625 35.8046875 C2.70926274 41.15005028 -1.01924687 42.39157126 -8.40234375 42.6171875 C-14.85761113 42.41204129 -18.18376874 41.36216603 -22.7265625 36.69140625 C-27.64709538 31.23511334 -28.70398198 26.82321869 -28.5234375 19.67578125 C-28.03167917 12.8225534 -26.38949169 8.05462104 -21.33984375 3.1171875 C-15.09417231 -1.72639443 -7.53090079 -2.84137492 0 0 Z " fill="#6E60F5" transform="translate(245.33984375,227.8828125)"/>
<path d="M0 0 C1.56047445 0.00015913 3.12095416 0.00585397 4.68139648 0.01586914 C5.5012352 0.01728409 6.32107391 0.01869904 7.16575623 0.02015686 C9.79470406 0.0257725 12.42356797 0.0383276 15.05249023 0.05102539 C16.8304838 0.05603838 18.60847869 0.06060163 20.38647461 0.06469727 C24.75434569 0.07574701 29.12215371 0.09302208 33.48999023 0.11352539 C34.31073879 3.09063177 35.12171108 6.06986448 35.92749023 9.05102539 C36.15758789 9.88182617 36.38768555 10.71262695 36.62475586 11.56860352 C36.84711914 12.39682617 37.06948242 13.22504883 37.29858398 14.07836914 C37.50281982 14.82723389 37.70705566 15.57609863 37.91748047 16.34765625 C38.7195068 20.22234975 39.05303157 24.18089738 39.48999023 28.11352539 C22.98999023 28.11352539 6.48999023 28.11352539 -10.51000977 28.11352539 C-4.91912486 0.15910086 -4.91912486 0.15910086 0 0 Z " fill="#6E5FF5" transform="translate(138.510009765625,169.886474609375)"/>
<path d="M0 0 C2.5625 0.25 2.5625 0.25 5.5625 2.25 C5.78857422 4.2902832 5.78857422 4.2902832 5.6171875 6.80078125 C4.83202472 18.32831288 4.83202472 18.32831288 9.51171875 28.38671875 C11.78639483 30.65919129 14.22304266 32.61732276 16.75390625 34.59375 C19.5625 37.25 19.5625 37.25 20.08984375 40.46875 C19.5625 43.25 19.5625 43.25 17.5625 45.25 C14.890625 45.80859375 14.890625 45.80859375 11.5625 45.25 C8.82927928 43.23330592 6.60350222 40.80978949 4.3125 38.3125 C3.07998524 37.009956 1.84569372 35.70909025 0.609375 34.41015625 C0.07151367 33.82886963 -0.46634766 33.24758301 -1.02050781 32.64868164 C-2.40592688 31.13659829 -2.40592688 31.13659829 -4.4375 30.25 C-4.48689662 26.29903022 -4.52321755 22.3481797 -4.54736328 18.39697266 C-4.56238107 16.3908864 -4.58778981 14.38488676 -4.61328125 12.37890625 C-4.62294922 10.49365234 -4.62294922 10.49365234 -4.6328125 8.5703125 C-4.64328613 7.40773926 -4.65375977 6.24516602 -4.66455078 5.04736328 C-4.37100077 1.43070088 -3.66696703 0.37609918 0 0 Z " fill="#7062F5" transform="translate(60.4375,219.75)"/>
<path d="M0 0 C3.56504994 0.80784383 5.22195936 2.68632629 7.37890625 5.5390625 C7.70890625 5.8690625 8.03890625 6.1990625 8.37890625 6.5390625 C8.78147187 11.28933685 8.84541004 13.63937662 6.62890625 17.9140625 C3.43158539 21.64427017 1.83059246 22.32399788 -2.99609375 23.0390625 C-7.14773034 22.46642297 -8.78647607 21.60716374 -11.51171875 18.515625 C-13.69317858 14.62893952 -13.512806 10.8109863 -12.62109375 6.5390625 C-10.26545476 0.60894644 -5.89118707 -0.33362907 0 0 Z " fill="#F8F7FE" transform="translate(239.62109375,237.4609375)"/>
<path d="M0 0 C0.33 0.99 0.66 1.98 1 3 C-0.24034412 4.32162881 -1.49268626 5.63200453 -2.75 6.9375 C-3.44609375 7.66839844 -4.1421875 8.39929688 -4.859375 9.15234375 C-7.00599725 11.00517646 -8.23532932 11.60771565 -11 12 C-10.29875 11.319375 -9.5975 10.63875 -8.875 9.9375 C-5.72065663 6.79219487 -2.86065696 3.4111614 0 0 Z " fill="#8073F6" transform="translate(278,266)"/>
<path d="M0 0 C0.66 0.33 1.32 0.66 2 1 C-0.97 3.97 -3.94 6.94 -7 10 C-7.33 9.34 -7.66 8.68 -8 8 C-3.375 2.25 -3.375 2.25 0 0 Z " fill="#8478F7" transform="translate(227,229)"/>
<path d="M0 0 C0.99 0.33 1.98 0.66 3 1 C0.03 3.475 0.03 3.475 -3 6 C-3.66 5.67 -4.32 5.34 -5 5 C-3.35 3.35 -1.7 1.7 0 0 Z " fill="#8377F6" transform="translate(91,273)"/>
</svg>
