<svg width="512" height="512" viewBox="0 0 512 512" fill="none" xmlns="http://www.w3.org/2000/svg">
<rect width="512" height="512" rx="50" fill="#4F7CFF"/>
<rect x="199" y="133" width="172" height="231" fill="#1E293B"/>
<path d="M256 64C306.922 64 355.758 84.2284 391.765 120.235C427.772 156.242 448 205.078 448 256C448 306.922 427.772 355.758 391.765 391.765C355.758 427.772 306.922 448 256 448C205.078 448 156.242 427.772 120.235 391.765C84.2284 355.758 64 306.922 64 256C64 205.078 84.2284 156.242 120.235 120.235C156.242 84.2284 205.078 64 256 64ZM256 139.25C250.232 139.25 244.699 141.541 240.62 145.62C236.541 149.699 234.25 155.232 234.25 161V256L234.257 256.54C234.392 261.932 236.526 267.083 240.245 270.99L240.623 271.377L307.787 338.565C309.808 340.586 312.208 342.19 314.849 343.283C317.489 344.377 320.319 344.94 323.177 344.94C326.035 344.94 328.865 344.377 331.505 343.283C334.145 342.19 336.545 340.586 338.565 338.565C340.586 336.545 342.19 334.145 343.283 331.505C344.377 328.865 344.94 326.035 344.94 323.177C344.94 320.319 344.377 317.489 343.283 314.849C342.19 312.208 340.586 309.809 338.565 307.788V307.787L278.336 247.582L277.75 246.996V161C277.75 155.232 275.459 149.699 271.38 145.62C267.301 141.541 261.768 139.25 256 139.25Z" fill="#F5F7FF" stroke="#1E293B" stroke-width="4"/>
<rect x="301.801" y="89.6001" width="120" height="60.8009" fill="#F5F7FF"/>
<path fill-rule="evenodd" clip-rule="evenodd" d="M323.669 54.5489C330.102 54.0353 336.209 51.5051 341.12 47.3187C346.666 42.5946 353.714 40 361 40C368.286 40 375.334 42.5946 380.88 47.3187C385.791 51.5051 391.898 54.0353 398.331 54.5489C405.595 55.1294 412.415 58.2785 417.568 63.4317C422.721 68.5848 425.871 75.4049 426.451 82.6693C426.961 89.0995 429.491 95.2096 433.681 100.12C438.405 105.666 441 112.714 441 120C441 127.286 438.405 134.334 433.681 139.88C429.495 144.791 426.965 150.898 426.451 157.331C425.871 164.595 422.721 171.415 417.568 176.568C412.415 181.721 405.595 184.871 398.331 185.451C391.898 185.965 385.791 188.495 380.88 192.681C375.334 197.405 368.286 200 361 200C353.714 200 346.666 197.405 341.12 192.681C336.209 188.495 330.102 185.965 323.669 185.451C316.405 184.871 309.585 181.721 304.432 176.568C299.279 171.415 296.129 164.595 295.549 157.331C295.035 150.898 292.505 144.791 288.319 139.88C283.595 134.334 281 127.286 281 120C281 112.714 283.595 105.666 288.319 100.12C292.505 95.2087 295.035 89.102 295.549 82.6693C296.129 75.4049 299.279 68.5848 304.432 63.4317C309.585 58.2785 316.405 55.1294 323.669 54.5489ZM398.071 107.07C399.892 105.184 400.9 102.658 400.877 100.036C400.855 97.4136 399.803 94.9055 397.949 93.0513C396.095 91.1972 393.587 90.1455 390.965 90.1227C388.343 90.0999 385.816 91.1079 383.93 92.9295L351 125.86L338.07 112.93C336.184 111.108 333.657 110.1 331.035 110.123C328.413 110.146 325.905 111.198 324.051 113.052C322.197 114.906 321.145 117.414 321.123 120.036C321.1 122.658 322.108 125.184 323.929 127.07L343.93 147.07C345.805 148.945 348.348 149.998 351 149.998C353.652 149.998 356.195 148.945 358.07 147.07L398.071 107.07Z" fill="#1E293B"/>
</svg>
